<svg xmlns="http://www.w3.org/2000/svg" xmlns:xlink="http://www.w3.org/1999/xlink"><defs><symbol viewBox="0 0 284.929 284.929" id="angle-down"><path d="M282.082 76.511l-14.274-14.273c-1.902-1.906-4.093-2.856-6.57-2.856-2.471 0-4.661.95-6.563 2.856L142.466 174.441 30.262 62.241c-1.903-1.906-4.093-2.856-6.567-2.856-2.475 0-4.665.95-6.567 2.856L2.856 76.515C.95 78.417 0 80.607 0 83.082c0 2.473.953 4.663 2.856 6.565l133.043 133.046c1.902 1.903 4.093 2.854 6.567 2.854s4.661-.951 6.562-2.854L282.082 89.647c1.902-1.903 2.847-4.093 2.847-6.565 0-2.475-.945-4.665-2.847-6.571z" /></symbol><symbol viewBox="0 0 284.929 284.929" id="angle-up"><path d="M282.082 195.285L149.028 62.24c-1.901-1.903-4.088-2.856-6.562-2.856s-4.665.953-6.567 2.856L2.856 195.285C.95 197.191 0 199.378 0 201.853c0 2.474.953 4.664 2.856 6.566l14.272 14.271c1.903 1.903 4.093 2.854 6.567 2.854s4.664-.951 6.567-2.854l112.204-112.202 112.208 112.209c1.902 1.903 4.093 2.848 6.563 2.848 2.478 0 4.668-.951 6.57-2.848l14.274-14.277c1.902-1.902 2.847-4.093 2.847-6.566.001-2.476-.944-4.666-2.846-6.569z" /></symbol><symbol viewBox="0 0 512 512" id="cart"><path d="M490.299 185.717H384.08L324.496 49.284c-3.315-7.591-12.157-11.06-19.749-7.743-7.592 3.315-11.059 12.158-7.743 19.75l54.34 124.427H160.656l54.34-124.427c3.315-7.592-.151-16.434-7.743-19.75-7.591-3.317-16.435.15-19.749 7.743L127.92 185.717H21.701c-13.895 0-24.207 12.579-21.167 25.82l55.935 243.63c2.221 9.674 11.015 16.55 21.167 16.55h356.728c10.152 0 18.946-6.876 21.167-16.55l55.935-243.63c3.04-13.24-7.273-25.82-21.167-25.82zm-359.557 46.004c-2.004 0-4.041-.404-5.996-1.258-7.592-3.315-11.059-12.157-7.743-19.75l11.268-25.802h32.736l-16.512 37.808c-2.461 5.639-7.971 9.002-13.753 9.002zM181 391.717c0 8.284-6.716 15-15 15s-15-6.716-15-15v-110c0-8.284 6.716-15 15-15s15 6.716 15 15zm90 0c0 8.284-6.716 15-15 15s-15-6.716-15-15v-110c0-8.284 6.716-15 15-15s15 6.716 15 15zm90 0c0 8.284-6.716 15-15 15s-15-6.716-15-15v-110c0-8.284 6.716-15 15-15s15 6.716 15 15zm26.253-161.254a14.938 14.938 0 01-5.995 1.258c-5.782 0-11.292-3.362-13.754-9.001l-16.512-37.808h32.736l11.268 25.802c3.316 7.592-.151 16.434-7.743 19.749z" /></symbol><symbol viewBox="0 0 515.556 515.556" id="check"><path d="M0 274.226l176.549 176.886L515.556 112.44l-48.67-47.997-290.337 290L47.996 225.891z" /></symbol><symbol viewBox="0 0 492 492" id="cross"><path d="M300.188 246L484.14 62.04c5.06-5.064 7.852-11.82 7.86-19.024 0-7.208-2.792-13.972-7.86-19.028L468.02 7.872C462.952 2.796 456.196.016 448.984.016c-7.2 0-13.956 2.78-19.024 7.856L246.008 191.82 62.048 7.872C56.988 2.796 50.228.016 43.02.016c-7.2 0-13.96 2.78-19.02 7.856L7.872 23.988c-10.496 10.496-10.496 27.568 0 38.052L191.828 246 7.872 429.952C2.808 435.024.02 441.78.02 448.984c0 7.204 2.788 13.96 7.852 19.028l16.124 16.116c5.06 5.072 11.824 7.856 19.02 7.856 7.208 0 13.968-2.784 19.028-7.856l183.96-183.952 183.952 183.952c5.068 5.072 11.824 7.856 19.024 7.856h.008c7.204 0 13.96-2.784 19.028-7.856l16.12-16.116c5.06-5.064 7.852-11.824 7.852-19.028 0-7.204-2.792-13.96-7.852-19.028L300.188 246z" /></symbol><symbol viewBox="-5 0 394 394" id="filter"><path d="M367.82 0H16.56A16.502 16.502 0 001.848 8.96a16.732 16.732 0 001.3 17.415L131.836 207.66c.043.063.09.121.133.184a36.751 36.751 0 017.219 21.816v147.8a16.448 16.448 0 004.773 11.688A16.45 16.45 0 00155.617 394a16.94 16.94 0 006.48-1.3l72.313-27.571c6.477-1.98 10.778-8.094 10.778-15.453V229.66a36.774 36.774 0 017.214-21.816c.043-.063.09-.121.133-.184L381.227 26.371a16.717 16.717 0 001.3-17.406A16.492 16.492 0 00367.82 0zm0 0" /></symbol><symbol viewBox="0 0 513.28 513.28" id="search"><path d="M495.04 404.48L410.56 320c15.36-30.72 25.6-66.56 25.6-102.4C436.16 97.28 338.88 0 218.56 0S.96 97.28.96 217.6s97.28 217.6 217.6 217.6c35.84 0 71.68-10.24 102.4-25.6l84.48 84.48c25.6 25.6 64 25.6 89.6 0 23.04-25.6 23.04-64 0-89.6zM218.56 384c-92.16 0-166.4-74.24-166.4-166.4S126.4 51.2 218.56 51.2s166.4 74.24 166.4 166.4S310.72 384 218.56 384z" /></symbol><symbol viewBox="0 -10 511.991 511" id="star"><path d="M510.652 185.883a27.177 27.177 0 00-23.402-18.688l-147.797-13.418-58.41-136.75C276.73 6.98 266.918.497 255.996.497s-20.738 6.483-25.023 16.53l-58.41 136.75-147.82 13.418c-10.837 1-20.013 8.34-23.403 18.688a27.25 27.25 0 007.937 28.926L121 312.773 88.059 457.86c-2.41 10.668 1.73 21.7 10.582 28.098a27.087 27.087 0 0015.957 5.184 27.14 27.14 0 0013.953-3.86l127.445-76.203 127.422 76.203a27.197 27.197 0 0029.934-1.324c8.851-6.398 12.992-17.43 10.582-28.098l-32.942-145.086 111.723-97.964a27.246 27.246 0 007.937-28.926zM258.45 409.605" /></symbol></defs></svg>